<?xml version="1.0" encoding="utf-8"?>
<!-- Generator: Adobe Illustrator 17.0.0, SVG Export Plug-In . SVG Version: 6.00 Build 0)  -->
<!DOCTYPE svg PUBLIC "-//W3C//DTD SVG 1.1//EN" "http://www.w3.org/Graphics/SVG/1.1/DTD/svg11.dtd">
<svg version="1.1" id="Layer_1" xmlns="http://www.w3.org/2000/svg" xmlns:xlink="http://www.w3.org/1999/xlink" x="0px" y="0px"
	 width="327.091px" height="63.971px" viewBox="0 0 327.091 63.971" enable-background="new 0 0 327.091 63.971"
	 xml:space="preserve">
<g>
	<path fill="#FFFFFF" d="M51.048,24.516c0,2.664-0.288,5.22-0.864,7.668c-0.576,2.447-1.404,4.746-2.484,6.895
		c-1.08,2.147-2.388,4.115-3.924,5.903c-1.536,1.788-3.252,3.343-5.148,4.662l10.476,14.327h-9.648
		c-1.368,0-2.604-0.161-3.708-0.485c-1.104-0.323-2.004-1.003-2.7-2.034l-5.076-7.308c-1.848,0.36-3.756,0.54-5.724,0.54
		c-3.456,0-6.558-0.605-9.306-1.818c-2.749-1.211-5.083-2.867-7.002-4.968c-1.92-2.1-3.391-4.572-4.41-7.416
		C0.51,37.637,0,34.573,0,31.284c0-2.832,0.33-5.549,0.99-8.154c0.66-2.604,1.596-5.022,2.808-7.254
		c1.211-2.232,2.682-4.26,4.41-6.084c1.728-1.824,3.66-3.378,5.796-4.662c2.136-1.284,4.452-2.28,6.948-2.988
		s5.136-1.062,7.92-1.062c3.432,0,6.522,0.606,9.27,1.818c2.748,1.212,5.076,2.875,6.984,4.986c1.908,2.112,3.372,4.596,4.392,7.452
		C50.538,18.192,51.048,21.252,51.048,24.516z M39.024,24.804c0-2.16-0.258-4.122-0.774-5.886s-1.272-3.276-2.268-4.536
		c-0.997-1.26-2.214-2.232-3.654-2.916s-3.072-1.026-4.896-1.026c-2.4,0-4.548,0.499-6.444,1.494
		c-1.896,0.996-3.51,2.394-4.842,4.194s-2.352,3.966-3.06,6.498c-0.708,2.532-1.062,5.334-1.062,8.406
		c0,2.16,0.252,4.117,0.756,5.868c0.504,1.752,1.242,3.253,2.214,4.5c0.972,1.248,2.178,2.214,3.618,2.897
		c1.44,0.685,3.083,1.026,4.932,1.026c2.399,0,4.554-0.491,6.462-1.476c1.908-0.984,3.528-2.377,4.86-4.176
		c1.332-1.801,2.358-3.961,3.078-6.48C38.664,30.672,39.024,27.876,39.024,24.804z"/>
	<path fill="#FFFFFF" d="M67.428,16.776L64.62,40.463c-0.048,0.385-0.084,0.738-0.108,1.062s-0.036,0.63-0.036,0.918
		c0,1.272,0.222,2.16,0.666,2.664c0.444,0.504,1.11,0.756,1.998,0.756c0.744,0,1.53-0.222,2.358-0.666
		c0.828-0.443,1.625-1.067,2.394-1.872c0.768-0.804,1.482-1.782,2.142-2.934c0.66-1.152,1.206-2.437,1.638-3.853l2.412-19.764h11.16
		l-4.536,37.332H79.02c-2.641,0-3.96-1.225-3.96-3.672V48.06c-1.8,2.256-3.732,3.924-5.796,5.004c-2.064,1.08-4.212,1.62-6.444,1.62
		c-1.392,0-2.67-0.252-3.834-0.756c-1.165-0.504-2.172-1.242-3.024-2.215c-0.852-0.972-1.512-2.172-1.98-3.6
		c-0.468-1.428-0.702-3.065-0.702-4.914c0-0.432,0.018-0.875,0.054-1.332c0.036-0.455,0.078-0.924,0.126-1.404l2.808-23.688H67.428z
		"/>
	<path fill="#FFFFFF" d="M107.892,16.776l-4.464,37.332H92.412l4.464-37.332H107.892z M109.979,6.552
		c0,0.888-0.192,1.723-0.576,2.502c-0.384,0.78-0.888,1.464-1.512,2.052c-0.625,0.588-1.338,1.056-2.142,1.404
		c-0.804,0.348-1.626,0.522-2.466,0.522c-0.84,0-1.644-0.174-2.412-0.522c-0.769-0.348-1.446-0.815-2.034-1.404
		c-0.588-0.588-1.062-1.272-1.422-2.052c-0.36-0.779-0.54-1.614-0.54-2.502c0-0.888,0.18-1.728,0.54-2.52
		c0.36-0.792,0.846-1.488,1.458-2.088c0.612-0.6,1.302-1.074,2.07-1.422C101.711,0.174,102.515,0,103.355,0
		c0.864,0,1.692,0.168,2.484,0.504c0.792,0.336,1.494,0.804,2.106,1.404c0.612,0.601,1.104,1.296,1.476,2.088
		C109.793,4.788,109.979,5.64,109.979,6.552z"/>
	<path fill="#FFFFFF" d="M137.195,50.904c-1.104,0.913-2.245,1.645-3.42,2.196c-1.176,0.553-2.43,0.953-3.762,1.206
		c-1.332,0.252-2.802,0.378-4.41,0.378c-2.184,0-4.152-0.373-5.904-1.116c-1.752-0.743-3.246-1.8-4.482-3.168
		c-1.236-1.368-2.19-3.024-2.862-4.968c-0.672-1.944-1.008-4.128-1.008-6.553c0-3.047,0.498-5.939,1.494-8.675
		c0.996-2.736,2.388-5.136,4.176-7.2c1.788-2.064,3.906-3.702,6.354-4.914c2.448-1.211,5.136-1.818,8.064-1.818
		c2.496,0,4.638,0.426,6.426,1.278c1.788,0.852,3.389,2.19,4.806,4.014l-3.6,4.14c-0.264,0.264-0.564,0.498-0.9,0.702
		c-0.336,0.204-0.708,0.306-1.116,0.306c-0.48,0-0.882-0.102-1.206-0.306c-0.324-0.204-0.679-0.419-1.062-0.648
		c-0.384-0.228-0.853-0.444-1.404-0.648c-0.552-0.204-1.272-0.306-2.16-0.306c-1.104,0-2.178,0.318-3.222,0.954
		c-1.044,0.636-1.974,1.554-2.79,2.754c-0.816,1.201-1.47,2.677-1.962,4.428c-0.492,1.752-0.738,3.744-0.738,5.977
		c0,1.248,0.144,2.334,0.432,3.258s0.684,1.691,1.188,2.304s1.092,1.074,1.764,1.386c0.671,0.312,1.392,0.469,2.16,0.469
		c1.152,0,2.082-0.162,2.79-0.486c0.708-0.324,1.326-0.678,1.854-1.062c0.527-0.383,1.02-0.738,1.476-1.062
		c0.456-0.323,1.008-0.485,1.656-0.485c0.36,0,0.714,0.085,1.062,0.252c0.348,0.169,0.642,0.396,0.882,0.685l2.88,3.384
		C139.45,48.875,138.298,49.993,137.195,50.904z"/>
	<path fill="#FFFFFF" d="M160.738,0.216L157.03,30.42h0.756c0.624,0,1.128-0.096,1.512-0.288c0.383-0.192,0.768-0.54,1.152-1.044
		l7.704-10.512c0.456-0.624,0.959-1.08,1.512-1.368s1.224-0.432,2.016-0.432h10.009L171.25,30.06
		c-0.48,0.624-1.008,1.176-1.584,1.656c-0.576,0.48-1.176,0.9-1.8,1.26c0.504,0.408,0.942,0.882,1.314,1.422s0.702,1.158,0.99,1.854
		l7.488,17.855h-9.72c-0.792,0-1.446-0.138-1.962-0.414c-0.516-0.275-0.918-0.762-1.206-1.458l-5.184-13.212
		c-0.265-0.6-0.546-0.99-0.846-1.17c-0.3-0.18-0.786-0.27-1.458-0.27h-1.152l-2.016,16.523h-11.016l6.624-53.892H160.738z"/>
	<path fill="#FFFFFF" d="M210.003,37.566c0.131,0.468,0.258,0.954,0.378,1.458c0.433-1.008,0.937-1.98,1.513-2.916l20.268-32.436
		c0.336-0.552,0.678-0.882,1.025-0.99c0.348-0.108,0.822-0.162,1.422-0.162h5.004l-6.336,51.588h-5.903l4.716-38.124
		c0.048-0.48,0.126-0.996,0.234-1.548c0.107-0.552,0.221-1.128,0.342-1.728l-20.053,32.328c-0.624,1.032-1.5,1.549-2.627,1.549
		h-0.937c-1.104,0-1.86-0.517-2.269-1.549l-12.42-32.4c-0.023,0.576-0.048,1.14-0.071,1.692c-0.024,0.552-0.061,1.068-0.108,1.548
		l-4.68,38.232h-5.939l6.371-51.588h4.932c0.6,0,1.074,0.054,1.422,0.162c0.348,0.108,0.618,0.438,0.811,0.99l12.492,32.436
		C209.733,36.612,209.87,37.098,210.003,37.566z"/>
	<path fill="#FFFFFF" d="M245.589,2.52h5.363c0.6,0,1.068,0.156,1.404,0.468c0.336,0.312,0.563,0.696,0.684,1.152l8.604,36.864
		c0.192,0.768,0.378,1.613,0.558,2.537c0.18,0.925,0.33,1.891,0.45,2.898c0.336-1.008,0.69-1.968,1.062-2.88
		c0.373-0.912,0.75-1.765,1.135-2.556L282.452,4.14c0.191-0.384,0.51-0.75,0.955-1.098c0.443-0.348,0.953-0.522,1.529-0.522h5.4
		l-25.668,51.588h-6.084L245.589,2.52z"/>
	<path fill="#FFFFFF" d="M299.623,34.74l-2.376,19.368h-6.696l6.301-51.588h14.22c2.736,0,5.112,0.324,7.128,0.972
		c2.016,0.648,3.678,1.572,4.986,2.772c1.308,1.201,2.286,2.641,2.934,4.32c0.648,1.68,0.972,3.552,0.972,5.616
		c0,2.712-0.444,5.202-1.332,7.47s-2.178,4.218-3.869,5.85c-1.692,1.632-3.78,2.91-6.265,3.834
		c-2.483,0.924-5.322,1.386-8.514,1.386H299.623z M302.936,7.812l-2.664,21.6h7.487c2.04,0,3.84-0.312,5.4-0.936
		c1.56-0.624,2.868-1.494,3.924-2.61c1.056-1.116,1.86-2.448,2.412-3.996c0.552-1.548,0.828-3.234,0.828-5.058
		c0-1.392-0.204-2.64-0.612-3.744c-0.408-1.104-1.021-2.046-1.836-2.826c-0.816-0.779-1.848-1.379-3.096-1.8
		c-1.248-0.419-2.7-0.63-4.356-0.63H302.936z"/>
</g>
</svg>
