<?xml version="1.0" encoding="utf-8"?>
<!-- Generator: Adobe Illustrator 17.1.0, SVG Export Plug-In . SVG Version: 6.00 Build 0)  -->
<!DOCTYPE svg PUBLIC "-//W3C//DTD SVG 1.1//EN" "http://www.w3.org/Graphics/SVG/1.1/DTD/svg11.dtd">
<svg version="1.1" id="Layer_1" xmlns="http://www.w3.org/2000/svg" xmlns:xlink="http://www.w3.org/1999/xlink" x="0px" y="0px"
	 viewBox="0 0 610.2 72" enable-background="new 0 0 610.2 72" xml:space="preserve">
<g>
	<g>
		<path fill="#FFFFFF" d="M139.7,19.3h4.3v37h-4.3V19.3z"/>
		<path fill="#FFFFFF" d="M150.4,43.1c0-9.6,6.4-13.8,12-13.8c6.2,0,11,4.4,11,13.9v0.9h-18.7c0.1,6,3.6,9.2,8,9.2
			c3.8,0,6-1.5,8-4.3l2.5,2.2c-2.5,3.5-5.8,5.6-10.8,5.6C156.1,56.9,150.4,52.3,150.4,43.1z M169.3,40.9c-0.4-4.7-2.6-7.9-7-7.9
			c-3.6,0-6.9,2.5-7.5,7.9H169.3z"/>
		<path fill="#FFFFFF" d="M177.5,50.1c0-5.4,4.5-9.2,17.7-11v-1.2c0-3.3-1.8-4.9-5-4.9c-4,0-7,1.8-9.5,4l-2.3-2.7
			c3.1-2.8,7-4.9,12.3-4.9c6.3,0,8.8,3.3,8.8,8.8v11.7c0,3.2,0.2,5.2,0.8,6.5h-4.4c-0.3-1.1-0.6-2.2-0.6-3.7
			c-3,2.8-6.3,4.1-10.2,4.1C180.4,56.7,177.5,54.3,177.5,50.1z M195.1,49.5v-7.4c-10.1,1.6-13.4,4.1-13.4,7.4c0,2.5,1.7,3.9,4.5,3.9
			C189.7,53.3,192.7,51.9,195.1,49.5z"/>
		<path fill="#FFFFFF" d="M206.7,29.9h4.4v4c2.3-2.2,5.6-4.5,9.9-4.5c5.1,0,7.8,2.9,7.8,7.9v19.1h-4.3V38.2c0-3.5-1.5-5.1-4.9-5.1
			c-3.2,0-5.8,1.6-8.6,4.2v19h-4.4V29.9z"/>
		<path fill="#FFFFFF" d="M233.4,52.8l3.2-4.5c2.4,2.1,6,3.4,9.3,3.4c2.5,0,4.2-0.8,4.2-2.6c0-1.8-1.4-2.6-5-3.2
			c-5.1-0.9-10.5-2.1-10.5-8.4c0-5.4,4.4-8.4,10.4-8.4c5.5,0,8.8,1.4,11.7,3.7l-3.2,4.5c-2.7-1.8-5.4-2.9-7.9-2.9
			c-2.3,0-3.6,0.9-3.6,2.4c0,1.6,1.5,2.3,4.8,2.9c5.2,0.9,10.8,2.1,10.8,8.2c0,6.5-5.6,9-11.8,9C240,56.9,236.1,55.1,233.4,52.8z"/>
		<path fill="#FFFFFF" d="M263.7,48.8V35.5h-4.5v-5.9h4.5v-9.2h8v9.2h6.8v5.9h-6.8v11.5c0,2.9,0.8,3.8,3.7,3.8
			c0.9,0,2.1-0.1,2.6-0.3v5.8c-0.6,0.2-3.5,0.4-5.3,0.4C264.9,56.7,263.7,53.8,263.7,48.8z"/>
		<path fill="#FFFFFF" d="M281.2,49.5c0-6.2,5.2-9.6,16.9-10.5v-0.7c0-2-1-3.2-3.6-3.2c-3.4,0-6.3,1.4-8.8,3.3l-3.4-4.6
			c2.7-2.4,6.7-4.7,13.3-4.7c7.3,0,10.3,3.6,10.3,10.4v10.3c0,3.2,0.2,5.2,0.8,6.5h-8c-0.3-1.1-0.6-2.4-0.6-3.9
			c-2.5,2.8-5.4,4.3-9.3,4.3C284.7,56.7,281.2,54.1,281.2,49.5z M298.1,48.4v-4.9c-6.4,0.6-9.1,2.2-9.1,4.7c0,1.7,1.2,2.6,3,2.6
			C294.8,50.7,296.7,49.7,298.1,48.4z"/>
		<path fill="#FFFFFF" d="M311.8,29.7h8.1v4.5h0c1.5-2.2,4-5,9-5h0.2l-0.1,7.2c-0.3-0.1-1.6-0.2-2.1-0.2c-3.2,0-5.6,1.7-7.1,3.7
			v16.6h-8.1V29.7z"/>
		<path fill="#FFFFFF" d="M335.1,48.8V35.5h-4.4v-5.9h4.4v-9.2h8v9.2h6.8v5.9h-6.8v11.5c0,2.9,0.8,3.8,3.7,3.8
			c0.9,0,2.1-0.1,2.7-0.3v5.8c-0.6,0.2-3.6,0.4-5.3,0.4C336.2,56.7,335.1,53.8,335.1,48.8z"/>
		<path fill="#FFFFFF" d="M354,49.1V29.7h8.1v17.1c0,2.4,0.9,3.7,3.2,3.7c2.2,0,4-1.1,5.8-2.7V29.7h8.1v26.7H371v-4.2
			c-1.6,2-4.6,4.7-9.2,4.7C357.3,56.9,354,54.6,354,49.1z"/>
		<path fill="#FFFFFF" d="M385.2,29.7h8.1v4c1.8-2.4,4.2-4.6,8.2-4.6c6.1,0,10.3,4.6,10.3,13.9c0,9.2-4.2,13.8-10.4,13.8
			c-3.6,0-6.1-1.3-8.1-3.6v13.2h-8.1V29.7z M403.6,43c0-4.5-1.6-7.3-5.2-7.3c-2.1,0-3.9,1.3-5.2,2.6v9.8c1.8,1.7,3.2,2.5,5.3,2.5
			C401.9,50.7,403.6,47.9,403.6,43z"/>
		<path fill="#FFFFFF" d="M417.1,29.9h4.3v4c2.5-2.5,5.6-4.5,9.5-4.5c4.4,0,6.3,1.9,7.2,4.6c2.5-2.5,5.8-4.6,9.8-4.6
			c5.4,0,7.7,3.1,7.7,7.9v19.1h-4.3V38.2c0-3.5-1.1-5.1-4.6-5.1c-2.9,0-5.4,1.6-8.2,4.2v19h-4.3V38.2c0-3.5-1.2-5.1-4.6-5.1
			c-2.9,0-5.4,1.6-8.2,4.2v19h-4.3V29.9z"/>
		<path fill="#FFFFFF" d="M461.4,50.1c0-5.4,4.6-9.2,17.7-11v-1.2c0-3.3-1.8-4.9-5-4.9c-4,0-6.9,1.8-9.5,4l-2.3-2.7
			c3.1-2.8,7-4.9,12.3-4.9c6.3,0,8.8,3.3,8.8,8.8v11.7c0,3.2,0.2,5.2,0.8,6.5h-4.4c-0.3-1.1-0.6-2.2-0.6-3.7
			c-3,2.8-6.3,4.1-10.2,4.1C464.3,56.7,461.4,54.3,461.4,50.1z M479,49.5v-7.4c-10.1,1.6-13.4,4.1-13.4,7.4c0,2.5,1.7,3.9,4.5,3.9
			C473.6,53.3,476.6,51.9,479,49.5z"/>
		<path fill="#FFFFFF" d="M489.1,43.1c0-9.7,6.2-13.8,12.1-13.8c5.9,0,8.8,3.5,10.3,7.4l-3.7,1.5c-1.3-3.4-3.3-5.3-6.8-5.3
			c-3.8,0-7.7,2.7-7.7,10.1c0,6.5,3.1,10.2,7.6,10.2c3.3,0,5.4-1.4,7.1-5.3l3.5,1.4c-2,4.4-5.1,7.5-10.8,7.5
			C494.8,56.9,489.1,52.2,489.1,43.1z"/>
		<path fill="#FFFFFF" d="M517.4,19.3h4.4v14.6c2.3-2.2,5.6-4.5,9.9-4.5c5.1,0,7.8,2.9,7.8,7.9v19.1h-4.3V38.2
			c0-3.5-1.5-5.1-4.8-5.1c-3.2,0-5.8,1.6-8.6,4.2v19h-4.4V19.3z"/>
		<path fill="#FFFFFF" d="M547,20.1h4.5v4.2H547V20.1z M547.1,29.9h4.3v26.4h-4.3V29.9z"/>
		<path fill="#FFFFFF" d="M559.3,29.9h4.3v4c2.3-2.2,5.6-4.5,9.9-4.5c5.1,0,7.8,2.9,7.8,7.9v19.1h-4.3V38.2c0-3.5-1.5-5.1-4.9-5.1
			c-3.2,0-5.8,1.6-8.6,4.2v19h-4.3V29.9z"/>
		<path fill="#FFFFFF" d="M587.2,43.1c0-9.6,6.4-13.8,12-13.8c6.2,0,11,4.4,11,13.9v0.9h-18.7c0.1,6,3.6,9.2,7.9,9.2
			c3.8,0,6-1.5,8-4.3l2.5,2.2c-2.4,3.5-5.8,5.6-10.8,5.6C592.9,56.9,587.2,52.3,587.2,43.1z M606.1,40.9c-0.3-4.7-2.6-7.9-7-7.9
			c-3.6,0-6.9,2.5-7.5,7.9H606.1z"/>
	</g>
</g>
<g>
	<path fill="none" stroke="#FFFFFF" stroke-width="4" stroke-miterlimit="10" d="M28.9,28.5C33.6,12.3,46.4,6.3,57.7,4.2
		c-6.9-1.3-13.1-1.1-16.5-0.9c-42.7,2.3-42.9,42.9-28.9,54C16.8,60.3,7,68,7,68s11.2,1.8,18.2-3c12.2,3.2,23.4,3.3,32.7,1.3
		C36.6,61.8,24.3,45.9,28.9,28.5z"/>
	<path fill="none" stroke="#FFFFFF" stroke-width="4" stroke-miterlimit="10" d="M103.4,57.2c14-11.1,13.7-51.7-28.9-54
		C71,3,64.6,2.8,57.7,4.2C69,6.2,82,12.2,86.7,28.6c4.5,17.3-7.6,33.2-28.8,37.8c9.3,2,20.3,1.8,32.5-1.4c7,4.7,18.2,3,18.2,3
		S98.8,60.2,103.4,57.2z"/>
</g>
<path fill="#FFFFFF" d="M86.7,28.7C81.9,12.3,68.9,6.3,57.6,4.2c-11.2,2.1-24.1,8.1-28.8,24.4C24.3,46,36.5,61.9,57.9,66.4
	C79.1,61.8,91.2,46,86.7,28.7z M50.9,56.8l2.9-15.7h-8.4l17.3-26.8l-1.8,15.2l8.6-0.2L50.9,56.8z"/>
</svg>
