<?xml version="1.0" encoding="utf-8"?>
<!-- Generator: Adobe Illustrator 17.1.0, SVG Export Plug-In . SVG Version: 6.00 Build 0)  -->
<!DOCTYPE svg PUBLIC "-//W3C//DTD SVG 1.1//EN" "http://www.w3.org/Graphics/SVG/1.1/DTD/svg11.dtd">
<svg version="1.1" id="Layer_1" xmlns="http://www.w3.org/2000/svg" xmlns:xlink="http://www.w3.org/1999/xlink" x="0px" y="0px"
	 viewBox="0 0 88.5 204.3" enable-background="new 0 0 88.5 204.3" xml:space="preserve">
<path fill="#5C537F" d="M40.6,203.8l-7.4-64.2h8.3v64.2C41.5,204.3,40.7,204.3,40.6,203.8z M47.9,203.9l7.4-64.4H47v64.3
	C47,204.4,47.8,204.5,47.9,203.9z M24.7,131.2L24.7,131.2c0.5,2.7,2.8,4.6,5.4,4.6h14.1h14.1c2.7,0,5-1.9,5.4-4.6l0,0H44.3H24.7z
	 M84.9,138.6c-0.4,1.3-2.3,1.3-2.6,0c-1.9-8.1-6.5-23.1-15-27c-0.9,5.2-2,10.6-3.3,16.2H44.3H24.5c-1.3-5.6-2.4-11-3.3-16.2
	c-8.4,3.8-13,18.6-15,26.8c-0.3,1.4-2.3,1.4-2.7,0C-7.4,97.7,9.5,79.2,17.7,73C17.8,27.7,35,7.3,41.7,1c1.5-1.4,3.7-1.4,5.2,0
	C53.6,7.3,70.7,27.7,70.8,73C79.1,79.3,96,97.8,84.9,138.6z M53.3,101.6c0-0.6-0.5-1.1-1.1-1.1H36.4c-0.6,0-1.1,0.5-1.1,1.1
	c0,0.6,0.5,1.1,1.1,1.1h15.8C52.8,102.7,53.3,102.2,53.3,101.6z M53.3,92.9c0-0.6-0.5-1.1-1.1-1.1H36.4c-0.6,0-1.1,0.5-1.1,1.1
	c0,0.6,0.5,1.1,1.1,1.1h15.8C52.8,94.1,53.3,93.6,53.3,92.9z M53.3,84.3c0-0.6-0.5-1.1-1.1-1.1H36.4c-0.6,0-1.1,0.5-1.1,1.1
	c0,0.6,0.5,1.1,1.1,1.1h15.8C52.8,85.4,53.3,84.9,53.3,84.3z M42.3,40c-6.7,0.8-12.1,6.2-12.9,12.9c-1.2,9.8,7,18.1,16.8,16.8
	c6.7-0.8,12.1-6.2,12.9-12.9C60.4,47,52.1,38.8,42.3,40z"/>
</svg>
